<svg width="303" height="312" viewBox="0 0 303 312" fill="none" xmlns="http://www.w3.org/2000/svg">
<path d="M31.813 136.476C31.813 136.476 85.0154 134.345 96.5125 46.8918C106.722 -30.7752 196.435 4.57596 222.368 35.5359C255.962 75.6419 238.054 144.633 281.511 153.348C324.969 162.064 296.59 258.965 230.625 249.69C148.565 238.152 168.419 286.103 143.785 306.398C126.106 320.965 53.6154 306.943 51.1994 254.066C49.1663 209.571 30.3974 209.712 17.0938 204.667C-2.09293 197.39 -14.1827 144.692 31.813 136.476Z" fill="#0087CA" fill-opacity="0.1"/>
<path d="M212.671 233.598L160.402 181.949L150.052 192.423L202.321 244.073L212.671 233.598Z" fill="#0087CA" fill-opacity="0.5"/>
<path d="M232.639 247.476L191.972 207.293C191.746 207.069 191.381 207.071 191.157 207.298L175.766 222.874C175.542 223.101 175.544 223.466 175.77 223.689L216.437 263.873C216.663 264.097 217.028 264.094 217.252 263.868L232.643 248.291C232.867 248.065 232.865 247.7 232.639 247.476Z" fill="#0087CA"/>
<path d="M114.075 207.924C150.035 207.924 179.186 178.773 179.186 142.813C179.186 106.853 150.035 77.7017 114.075 77.7017C78.1146 77.7017 48.9633 106.853 48.9633 142.813C48.9633 178.773 78.1146 207.924 114.075 207.924Z" fill="#0087CA"/>
<path d="M114.075 197.301C144.167 197.301 168.562 172.906 168.562 142.813C168.562 112.721 144.167 88.3262 114.075 88.3262C83.9822 88.3262 59.5874 112.721 59.5874 142.813C59.5874 172.906 83.9822 197.301 114.075 197.301Z" fill="#E6F3FA"/>
<path d="M224.153 83.9517C208.88 79.0012 192.375 87.374 187.404 102.71C182.454 117.982 190.826 134.488 206.162 139.458C221.498 144.429 237.96 135.974 242.912 120.7C247.863 105.427 239.427 88.902 224.153 83.9517ZM219.545 98.1699C221.254 98.724 222.761 99.7734 223.873 101.185C224.985 102.596 225.653 104.306 225.792 106.098C225.931 107.89 225.535 109.683 224.654 111.249C223.773 112.815 222.446 114.084 220.842 114.895C219.239 115.707 217.43 116.023 215.647 115.805C213.863 115.587 212.184 114.844 210.823 113.671C209.462 112.497 208.48 110.946 208.002 109.214C207.524 107.481 207.571 105.646 208.137 103.941C209.667 99.222 214.825 96.6405 219.545 98.1699ZM208.014 133.746C202.94 132.11 198.592 128.76 195.716 124.271C201.098 121.213 206.726 120.361 211.817 122.012C216.908 123.662 221.048 127.611 223.531 133.287C218.569 135.235 213.083 135.398 208.014 133.746Z" fill="#0087CA"/>
<path d="M97.0324 223.127C94.3795 224.481 92.1878 226.592 90.7344 229.191C89.2809 231.791 88.631 234.763 88.8669 237.732C89.1027 240.702 90.2137 243.534 92.0593 245.872C93.9049 248.209 96.4023 249.947 99.2357 250.866C102.069 251.784 105.111 251.841 107.977 251.031C110.843 250.22 113.404 248.578 115.337 246.312C117.27 244.046 118.487 241.257 118.835 238.299C119.183 235.341 118.646 232.346 117.292 229.694C115.473 226.139 112.318 223.452 108.52 222.221C104.722 220.99 100.59 221.316 97.0324 223.127ZM100.54 229.999C101.366 229.577 102.299 229.41 103.22 229.519C104.142 229.628 105.01 230.009 105.714 230.612C106.419 231.215 106.929 232.014 107.179 232.907C107.429 233.801 107.408 234.748 107.119 235.63C106.829 236.511 106.285 237.287 105.554 237.858C104.823 238.43 103.939 238.771 103.014 238.84C102.089 238.908 101.164 238.7 100.358 238.242C99.5509 237.784 98.8983 237.097 98.4826 236.268C97.9317 235.162 97.8388 233.884 98.2239 232.71C98.609 231.537 99.4411 230.562 100.54 229.998V229.999ZM109.316 247.193C106.867 248.447 104.058 248.812 101.369 248.223C102.218 245.142 103.961 242.777 106.422 241.521C108.883 240.265 111.835 240.196 114.813 241.361C113.712 243.883 111.769 245.945 109.316 247.192V247.193Z" fill="#0087CA"/>
</svg>
