<svg width="274" height="269" viewBox="0 0 274 269" fill="none" xmlns="http://www.w3.org/2000/svg">
<circle cx="149.201" cy="147.939" r="110.718" fill="#DDF1FF"/>
<circle cx="25.2348" cy="116.711" r="25.2181" fill="#DDF1FF" stroke="#0087CA" stroke-width="0.0334141"/>
<circle cx="73.8118" cy="15.7718" r="15.7613" fill="#DDF1FF" stroke="#0087CA" stroke-width="0.0208838"/>
<circle cx="247.617" cy="36.2751" r="12.2938" fill="#DDF1FF" stroke="#0087CA" stroke-width="0.0162894"/>
<circle cx="243.832" cy="221.12" r="5.98931" fill="#DDF1FF" stroke="#0087CA" stroke-width="0.00793585"/>
<path d="M178.359 43.2692C177.96 43.1842 177.96 42.6142 178.359 42.5292L185.16 41.0829C185.403 41.0313 185.593 40.8423 185.645 40.5999L187.11 33.8433C187.197 33.4458 187.764 33.4458 187.85 33.8433L189.315 40.5999C189.367 40.8423 189.557 41.0313 189.8 41.0829L196.601 42.5292C197 42.6142 197 43.1842 196.601 43.2692L189.8 44.7155C189.557 44.7671 189.367 44.9561 189.315 45.1985L187.85 51.9551C187.764 52.3526 187.197 52.3526 187.11 51.9551L185.645 45.1985C185.593 44.9561 185.403 44.7671 185.16 44.7155L178.359 43.2692Z" fill="#0087CA" stroke="#0087CA" stroke-width="0.252173"/>
<path d="M19.0115 162.66C19.0915 162.282 19.6306 162.282 19.7105 162.66L21.7264 172.183C21.8137 172.596 22.1348 172.919 22.5468 173.008L31.9791 175.063C32.354 175.145 32.354 175.68 31.9791 175.761L22.5468 177.816C22.1348 177.906 21.8137 178.229 21.7264 178.641L19.7105 188.165C19.6306 188.543 19.0915 188.543 19.0115 188.165L16.9956 178.641C16.9083 178.229 16.5872 177.906 16.1753 177.816L6.7429 175.761C6.36796 175.68 6.36797 175.145 6.7429 175.063L16.1752 173.008C16.5872 172.919 16.9083 172.596 16.9956 172.183L19.0115 162.66Z" fill="#0087CA" stroke="#0087CA" stroke-width="0.714489"/>
<path d="M178.603 249.624C178.682 249.247 179.222 249.247 179.302 249.624L180.439 254.997C180.526 255.41 180.847 255.733 181.259 255.822L186.6 256.986C186.975 257.068 186.975 257.602 186.6 257.684L181.259 258.848C180.847 258.937 180.526 259.26 180.439 259.673L179.302 265.046C179.222 265.423 178.682 265.423 178.603 265.046L177.465 259.673C177.378 259.26 177.057 258.937 176.645 258.848L171.304 257.684C170.929 257.602 170.929 257.068 171.304 256.986L176.645 255.822C177.057 255.733 177.378 255.41 177.465 254.997L178.603 249.624Z" fill="#0087CA" stroke="#0087CA" stroke-width="0.714489"/>
<path d="M266.983 80.1739L191.414 65.6933C187.539 64.9507 183.795 67.4904 183.053 71.3659L163.506 173.371C163.084 175.576 163.722 177.851 165.23 179.515L200.35 218.253C202.71 220.856 206.611 221.357 209.552 219.436L250.476 192.692C252.098 191.632 253.22 189.958 253.585 188.055L272.655 88.5358C273.398 84.6603 270.858 80.9165 266.983 80.1739Z" fill="#0087CA"/>
<path d="M221.987 111.232C222.28 111.295 222.585 111.215 222.81 111.018L222.81 111.018L222.811 111.017L222.821 111.009C222.83 111.001 222.845 110.989 222.865 110.972C222.905 110.938 222.966 110.887 223.048 110.821C223.211 110.69 223.453 110.501 223.763 110.276C224.383 109.826 225.267 109.239 226.318 108.689C228.451 107.574 231.125 106.694 233.658 107.235C238.867 108.348 242.182 113.425 241.085 118.56C240.626 120.709 239.416 124.304 235.872 128.238C232.323 132.176 226.396 136.497 216.437 140.028C216.241 140.096 216.03 140.109 215.827 140.066C215.624 140.023 215.437 139.925 215.286 139.782C207.639 132.489 203.995 126.124 202.366 121.08C200.738 116.041 201.103 112.265 201.562 110.117C202.659 104.982 207.759 101.702 212.968 102.815C215.501 103.356 217.582 105.252 219.073 107.141C219.808 108.072 220.375 108.97 220.757 109.634C220.948 109.965 221.092 110.237 221.187 110.424C221.234 110.517 221.269 110.589 221.292 110.636C221.304 110.659 221.312 110.677 221.317 110.688L221.322 110.699L221.323 110.7L221.323 110.701C221.323 110.701 221.323 110.701 221.323 110.701C221.448 110.973 221.694 111.17 221.987 111.232Z" fill="white" stroke="#0087CA" stroke-width="1.89787" stroke-linecap="round" stroke-linejoin="round"/>
<circle cx="206.926" cy="193.047" r="8.20132" fill="#0087CA"/>
<circle cx="206.926" cy="193.047" r="8.20132" stroke="#0087CA"/>
<path d="M122.053 32.4283L20.7121 69.1344C16.26 70.7469 13.958 75.6634 15.5706 80.1156L64.1305 214.183C65.0479 216.716 67.1027 218.671 69.6784 219.461L139.693 240.929C143.723 242.164 148.054 240.287 149.908 236.5L180.019 174.973C181.041 172.884 181.171 170.47 180.38 168.284L133.034 37.5698C131.422 33.1176 126.505 30.8157 122.053 32.4283Z" fill="white" stroke="#0087CA" stroke-width="2.85796"/>
<path d="M88.9581 98.4611C89.3827 98.2945 89.7038 97.9373 89.8244 97.4975L89.8246 97.4968L89.8251 97.4948L89.8303 97.4765C89.8353 97.4588 89.8434 97.4306 89.8547 97.3923C89.8773 97.3156 89.9126 97.1989 89.9609 97.047C90.0577 96.743 90.2066 96.2988 90.4112 95.7531C90.8213 94.6593 91.4505 93.1698 92.3246 91.5878C94.0985 88.3771 96.7563 85.0113 100.431 83.5695C107.986 80.6046 116.468 84.27 119.391 91.7188C120.614 94.8355 122.099 100.422 120.901 108.401C119.703 116.389 115.802 126.863 106.114 139.725C105.922 139.976 105.665 140.17 105.37 140.286C105.076 140.401 104.756 140.434 104.444 140.38C88.5937 137.54 78.6108 132.513 72.2996 127.472C65.9954 122.437 63.2843 117.332 62.0613 114.215C59.1384 106.767 62.8641 98.3108 70.4196 95.346C74.094 93.9042 78.3315 94.5642 81.8156 95.7116C83.5323 96.2769 85.0065 96.941 86.0511 97.464C86.5722 97.7249 86.9835 97.9493 87.2612 98.1064C87.4 98.1849 87.5052 98.2465 87.5739 98.2873C87.6082 98.3077 87.6334 98.3229 87.6491 98.3324L87.6653 98.3424L87.6671 98.3434L87.6676 98.3438C88.0552 98.5842 88.5335 98.6277 88.9581 98.4611Z" fill="#0087CA" stroke="#0087CA" stroke-width="2.89204" stroke-linecap="round" stroke-linejoin="round"/>
<circle cx="130.275" cy="205.349" r="10.4094" fill="#0087CA"/>
<circle cx="130.275" cy="205.349" r="10.4094" stroke="#0087CA"/>
</svg>
